<svg width="37.56" height="21.3" viewBox="0 0 37.56 21.3" xmlns="http://www.w3.org/2000/svg"><g id="svgGroup" stroke-linecap="round" fill-rule="evenodd" font-size="9pt" stroke="#d423ad" stroke-width="0.25mm" fill="#cd77d7" style="stroke:#d423ad;stroke-width:0.25mm;fill:#cd77d7"><path d="M 18.12 0.3 L 22.74 0.3 L 28.44 0 Q 30.614 0 32.138 0.753 A 5.751 5.751 0 0 1 32.76 1.11 Q 34.419 2.207 34.44 4.093 A 4.354 4.354 0 0 1 34.44 4.14 A 8.08 8.08 0 0 1 34.221 6.071 A 5.773 5.773 0 0 1 33 8.49 Q 31.56 10.17 29.46 11.04 L 34.32 18.36 Q 34.552 18.732 35.118 19.302 A 16.189 16.189 0 0 0 35.475 19.65 A 4.628 4.628 0 0 0 35.918 20.023 Q 36.432 20.401 36.881 20.452 A 1.225 1.225 0 0 0 37.02 20.46 L 37.56 20.46 L 37.56 21.3 L 33.12 21.3 Q 33.206 21.3 32.61 20.483 A 31.868 31.868 0 0 0 32.55 20.4 A 57.729 57.729 0 0 1 32.323 20.088 Q 31.873 19.466 31.8 19.32 L 26.82 11.64 A 1.855 1.855 0 0 1 26.66 11.664 Q 26.402 11.692 25.929 11.698 A 22.33 22.33 0 0 1 25.62 11.7 A 22.227 22.227 0 0 1 25.093 11.694 Q 24.587 11.682 24.23 11.646 A 6.204 6.204 0 0 1 24.18 11.64 L 23.94 10.44 A 3.516 3.516 0 0 0 24.17 10.464 Q 24.547 10.492 25.267 10.498 A 52.05 52.05 0 0 0 25.74 10.5 Q 27.12 10.5 28.5 10.14 Q 29.88 9.78 30.93 8.775 A 3.357 3.357 0 0 0 31.967 6.521 A 4.541 4.541 0 0 0 31.98 6.18 A 4.861 4.861 0 0 0 31.601 4.186 Q 30.677 2.115 27.502 1.797 A 12.318 12.318 0 0 0 26.28 1.74 L 23.16 1.86 L 23.16 19.08 A 5.439 5.439 0 0 0 23.165 19.329 Q 23.178 19.601 23.22 19.77 Q 23.279 20.008 23.604 20.231 A 1.884 1.884 0 0 0 23.61 20.235 A 1.087 1.087 0 0 0 23.897 20.37 Q 24.164 20.455 24.548 20.46 A 3.757 3.757 0 0 0 24.6 20.46 L 25.74 20.46 L 25.74 21.3 L 18.12 21.3 L 18.12 20.46 L 19.08 20.46 A 3.122 3.122 0 0 0 19.425 20.442 Q 19.804 20.4 20.036 20.257 A 0.883 0.883 0 0 0 20.07 20.235 Q 20.394 20.014 20.458 19.779 A 0.464 0.464 0 0 0 20.46 19.77 Q 20.512 19.563 20.519 19.199 A 6.126 6.126 0 0 0 20.52 19.08 L 20.52 2.52 A 2.647 2.647 0 0 0 20.497 2.162 Q 20.44 1.742 20.235 1.515 A 0.731 0.731 0 0 0 19.985 1.342 Q 19.744 1.235 19.353 1.209 A 4.048 4.048 0 0 0 19.08 1.2 L 18.12 1.2 L 18.12 0.3 Z M 6.06 11.88 L 5.82 10.68 L 7.26 10.74 A 12.289 12.289 0 0 0 9.932 10.459 A 10.542 10.542 0 0 0 11.4 10.02 Q 12.51 9.6 13.185 8.7 A 3.333 3.333 0 0 0 13.801 7.227 A 4.513 4.513 0 0 0 13.86 6.48 Q 13.86 2.082 8.953 1.765 A 12.295 12.295 0 0 0 8.16 1.74 L 5.04 1.86 L 5.04 19.14 Q 5.04 19.53 5.092 19.764 A 1.288 1.288 0 0 0 5.1 19.8 Q 5.16 20.04 5.49 20.25 A 1.11 1.11 0 0 0 5.763 20.372 Q 6.028 20.453 6.41 20.46 A 3.984 3.984 0 0 0 6.48 20.46 L 7.62 20.46 L 7.62 21.3 L 0 21.3 L 0 20.46 L 0.96 20.46 A 3.343 3.343 0 0 0 1.305 20.444 Q 1.713 20.401 1.95 20.25 A 1.426 1.426 0 0 0 2.114 20.13 Q 2.194 20.061 2.247 19.989 A 0.535 0.535 0 0 0 2.34 19.8 Q 2.4 19.56 2.4 19.14 L 2.4 2.52 A 2.647 2.647 0 0 0 2.377 2.162 Q 2.32 1.742 2.115 1.515 A 0.731 0.731 0 0 0 1.865 1.342 Q 1.624 1.235 1.233 1.209 A 4.048 4.048 0 0 0 0.96 1.2 L 0 1.2 L 0 0.3 L 4.62 0.3 L 10.32 0 Q 12.465 0 13.947 0.739 A 5.442 5.442 0 0 1 14.67 1.17 A 3.719 3.719 0 0 1 16.286 3.864 A 4.942 4.942 0 0 1 16.32 4.455 A 7.736 7.736 0 0 1 16.08 6.421 A 6.276 6.276 0 0 1 15.345 8.145 Q 14.37 9.72 12.93 10.5 Q 10.956 11.542 9.28 11.83 A 7.312 7.312 0 0 1 8.04 11.94 A 44.828 44.828 0 0 1 7.444 11.936 Q 6.6 11.925 6.06 11.88 Z" vector-effect="non-scaling-stroke"/></g></svg>